<svg width="114" height="41" viewBox="0 0 114 41" fill="none" xmlns="http://www.w3.org/2000/svg">
<g clip-path="url(#clip0_98_1885)">
<path d="M19.2986 29.775C24.6278 29.775 28.9479 25.4549 28.9479 20.1258C28.9479 14.7967 24.6278 10.4766 19.2986 10.4766C13.9695 10.4766 9.64941 14.7967 9.64941 20.1258C9.64941 25.4549 13.9695 29.775 19.2986 29.775Z" fill="white"/>
<path d="M19.2988 10.4813H36.009C34.3158 7.54744 31.8799 5.1111 28.9463 3.41726C26.0128 1.72342 22.685 0.831795 19.2976 0.832031C15.9101 0.832268 12.5824 1.72436 9.64913 3.41861C6.71582 5.11285 4.28028 7.54953 2.5874 10.4836L10.9425 24.9551L10.95 24.9532C10.1001 23.4876 9.65153 21.8237 9.64962 20.1295C9.64772 18.4352 10.0925 16.7704 10.9391 15.3028C11.7858 13.8352 13.0044 12.6168 14.472 11.7703C15.9397 10.9238 17.6046 10.4792 19.2988 10.4813Z" fill="url(#paint0_linear_98_1885)"/>
<path d="M19.2986 27.7692C23.5175 27.7692 26.9376 24.3491 26.9376 20.1302C26.9376 15.9113 23.5175 12.4912 19.2986 12.4912C15.0798 12.4912 11.6597 15.9113 11.6597 20.1302C11.6597 24.3491 15.0798 27.7692 19.2986 27.7692Z" fill="#1A73E8"/>
<path d="M27.6545 24.9571L19.2994 39.4286C22.6868 39.4291 26.0146 38.5377 28.9483 36.844C31.8819 35.1504 34.318 32.7143 36.0115 29.7806C37.705 26.8468 38.5962 23.5189 38.5956 20.1315C38.595 16.7441 37.7026 13.4165 36.008 10.4834H19.2979L19.2959 10.4909C20.9902 10.4876 22.6554 10.9311 24.1236 11.7765C25.5919 12.622 26.8113 13.8396 27.6589 15.3066C28.5065 16.7736 28.9524 18.4382 28.9517 20.1325C28.9509 21.8267 28.5034 23.4909 27.6545 24.9571Z" fill="url(#paint1_linear_98_1885)"/>
<path d="M10.9428 24.9569L2.58772 10.4854C0.893571 13.4187 0.0015911 16.7464 0.00146486 20.1339C0.00133862 23.5213 0.893071 26.8491 2.587 29.7826C4.28092 32.7161 6.71733 35.1519 9.65124 36.8451C12.5852 38.5383 15.9131 39.4292 19.3006 39.4282L27.6557 24.9567L27.6503 24.9512C26.806 26.4201 25.5893 27.6405 24.123 28.4893C22.6567 29.3381 20.9925 29.7853 19.2982 29.7859C17.6039 29.7864 15.9394 29.3403 14.4725 28.4925C13.0056 27.6447 11.7881 26.4252 10.9428 24.9569Z" fill="url(#paint2_linear_98_1885)"/>
</g>
<g clip-path="url(#clip1_98_1885)">
<path fill-rule="evenodd" clip-rule="evenodd" d="M111.741 9.6381L112.685 7.32558C112.685 7.32558 111.483 6.04074 110.024 4.58428C108.566 3.12782 105.476 3.98438 105.476 3.98438L101.957 0H89.5998L86.0805 3.98438C86.0805 3.98438 82.9919 3.12782 81.5329 4.58478C80.6322 5.48488 79.7453 6.39876 78.8727 7.32609L79.8163 9.63861L78.615 13.0649C78.615 13.0649 82.1484 26.4241 82.5626 28.0557C83.3779 31.2681 83.9355 32.5102 86.2526 34.1377C88.5696 35.7653 92.775 38.5922 93.4614 39.021C94.1479 39.4487 95.0065 40.1785 95.7785 40.1785C96.551 40.1785 97.4091 39.4487 98.0955 39.021C98.782 38.5922 102.987 35.7653 105.304 34.1377C107.621 32.5102 108.179 31.2681 108.994 28.0557C109.409 26.4241 112.942 13.0649 112.942 13.0649L111.741 9.6381Z" fill="url(#paint3_linear_98_1885)"/>
<path fill-rule="evenodd" clip-rule="evenodd" d="M104.489 6.51204C104.489 6.51204 109.014 11.9725 109.014 13.1401C109.014 14.3077 108.445 14.6152 107.873 15.2221L104.479 18.819C104.158 19.1592 103.49 19.675 103.883 20.6041C104.276 21.5326 104.856 22.7143 104.211 23.9131C103.566 25.1114 102.461 25.911 101.753 25.7792C101.045 25.6468 99.3829 24.7797 98.7714 24.3831C98.1599 23.9871 96.2218 22.3917 96.2218 21.7812C96.2218 21.1708 98.2249 20.0751 98.5953 19.826C98.9652 19.5769 100.654 18.6131 100.688 18.2352C100.723 17.8567 100.709 17.7455 100.211 16.8109C99.713 15.8759 98.8157 14.6288 98.9652 13.7989C99.1146 12.9685 100.562 12.5372 101.594 12.1482C102.626 11.7586 104.614 11.0238 104.862 10.9096C105.111 10.7949 105.047 10.6862 104.294 10.6152C103.542 10.5437 101.408 10.2609 100.445 10.5286C99.4825 10.7964 97.8378 11.204 97.705 11.4199C97.5716 11.6363 97.4544 11.6434 97.5912 12.3887C97.7281 13.1336 98.4317 16.7098 98.5001 17.3449C98.5686 17.9805 98.7025 18.4003 98.0165 18.5568C97.33 18.7133 96.175 18.9851 95.7785 18.9851C95.3814 18.9851 94.2264 18.7133 93.5399 18.5568C92.854 18.4003 92.9878 17.9805 93.0563 17.3449C93.1242 16.7098 93.8288 13.1341 93.9652 12.3887C94.1021 11.6434 93.9848 11.6358 93.8515 11.4199C93.7186 11.2035 92.0739 10.7964 91.1117 10.5291C90.1489 10.2609 88.0145 10.5442 87.2616 10.6147C86.5098 10.6862 86.4458 10.7949 86.694 10.9096C86.9426 11.0238 88.9305 11.7586 89.9627 12.1476C90.9954 12.5372 92.4423 12.9685 92.5913 13.7984C92.7407 14.6288 91.8434 15.8759 91.3457 16.8109C90.8474 17.7455 90.8339 17.8567 90.8686 18.2352C90.9033 18.6131 92.5913 19.5769 92.9617 19.8255C93.3316 20.0751 95.3346 21.1708 95.3346 21.7812C95.3346 22.3917 93.397 23.9871 92.7855 24.3831C92.1741 24.7797 90.5113 25.6468 89.8032 25.7792C89.0951 25.9116 87.9904 25.1114 87.3452 23.9131C86.7005 22.7143 87.2803 21.5326 87.6733 20.6041C88.0664 19.675 87.3985 19.1597 87.0775 18.819L83.6839 15.2221C83.1112 14.6152 82.542 14.3072 82.542 13.1401C82.542 11.9725 87.0679 6.51204 87.0679 6.51204C87.0679 6.51204 90.8867 7.24027 91.4015 7.24027C91.9164 7.24027 93.0321 6.81199 94.0618 6.46927C95.092 6.12654 95.778 6.12402 95.778 6.12402C95.778 6.12402 96.4649 6.12654 97.4946 6.46927C98.5243 6.81149 99.6401 7.24027 100.155 7.24027C100.67 7.24027 104.489 6.51204 104.489 6.51204ZM101.097 27.4012C101.376 27.5764 101.205 27.9065 100.951 28.0867C100.695 28.2669 97.2656 30.9176 96.933 31.2105C96.5998 31.5034 96.1106 31.9875 95.7785 31.9875C95.4458 31.9875 94.9566 31.5034 94.624 31.2105C94.2908 30.9176 90.8615 28.2663 90.6064 28.0867C90.3512 27.9065 90.1806 27.5764 90.4604 27.4012C90.7407 27.2266 91.6174 26.7847 92.8268 26.1597C94.0356 25.5356 95.5429 25.0042 95.7785 25.0042C96.0135 25.0042 97.5208 25.5351 98.7301 26.1597C99.9395 26.7847 100.816 27.2266 101.096 27.4012H101.097Z" fill="white"/>
<mask id="mask0_98_1885" style="mask-type:alpha" maskUnits="userSpaceOnUse" x="81" y="0" width="30" height="8">
<path d="M105.475 3.98438L101.957 0H89.5986L86.0803 3.98438C86.0803 3.98438 82.9912 3.12782 81.5322 4.58478C81.5322 4.58478 85.6515 4.21337 87.0677 6.5123C87.0677 6.5123 90.8865 7.24053 91.4013 7.24053C91.9162 7.24053 93.0319 6.81225 94.0616 6.46952C95.0918 6.1268 95.7778 6.12428 95.7778 6.12428C95.7778 6.12428 96.4647 6.1268 97.4944 6.46952C98.5241 6.81174 99.6398 7.24053 100.155 7.24053C100.67 7.24053 104.489 6.5123 104.489 6.5123C105.905 4.21337 110.024 4.58478 110.024 4.58478C108.565 3.12832 105.475 3.98488 105.475 3.98488V3.98438Z" fill="white"/>
</mask>
<g mask="url(#mask0_98_1885)">
<path d="M105.475 3.98438L101.957 0H89.5986L86.0803 3.98438C86.0803 3.98438 82.9912 3.12782 81.5322 4.58478C81.5322 4.58478 85.6515 4.21337 87.0677 6.5123C87.0677 6.5123 90.8865 7.24053 91.4013 7.24053C91.9162 7.24053 93.0319 6.81225 94.0616 6.46952C95.0918 6.1268 95.7778 6.12428 95.7778 6.12428C95.7778 6.12428 96.4647 6.1268 97.4944 6.46952C98.5241 6.81174 99.6398 7.24053 100.155 7.24053C100.67 7.24053 104.489 6.5123 104.489 6.5123C105.905 4.21337 110.024 4.58478 110.024 4.58478C108.565 3.12832 105.475 3.98488 105.475 3.98488V3.98438Z" fill="url(#paint4_linear_98_1885)"/>
</g>
</g>
<defs>
<linearGradient id="paint0_linear_98_1885" x1="2.5874" y1="12.8936" x2="36.009" y2="12.8936" gradientUnits="userSpaceOnUse">
<stop stop-color="#D93025"/>
<stop offset="1" stop-color="#EA4335"/>
</linearGradient>
<linearGradient id="paint1_linear_98_1885" x1="16.6629" y1="39.1706" x2="33.3737" y2="10.2266" gradientUnits="userSpaceOnUse">
<stop stop-color="#FCC934"/>
<stop offset="1" stop-color="#FBBC04"/>
</linearGradient>
<linearGradient id="paint2_linear_98_1885" x1="21.3877" y1="38.2233" x2="4.67685" y2="9.2792" gradientUnits="userSpaceOnUse">
<stop stop-color="#1E8E3E"/>
<stop offset="1" stop-color="#34A853"/>
</linearGradient>
<linearGradient id="paint3_linear_98_1885" x1="78.6151" y1="20.3728" x2="112.942" y2="20.3728" gradientUnits="userSpaceOnUse">
<stop stop-color="#FF5500"/>
<stop offset="0.409877" stop-color="#FF5500"/>
<stop offset="0.581981" stop-color="#FF2000"/>
<stop offset="1" stop-color="#FF2000"/>
</linearGradient>
<linearGradient id="paint4_linear_98_1885" x1="82.1446" y1="3.67097" x2="110.024" y2="3.67097" gradientUnits="userSpaceOnUse">
<stop stop-color="#FF452A"/>
<stop offset="1" stop-color="#FF2000"/>
</linearGradient>
<clipPath id="clip0_98_1885">
<rect width="38.5969" height="38.5969" fill="white" transform="translate(0 0.832031)"/>
</clipPath>
<clipPath id="clip1_98_1885">
<rect width="34.7256" height="40.2615" fill="white" transform="translate(78.5969)"/>
</clipPath>
</defs>
</svg>
